<?xml version="1.0" encoding="UTF-8"?>
<svg xmlns="http://www.w3.org/2000/svg" xmlns:xlink="http://www.w3.org/1999/xlink" viewBox="0 0 48 48" width="48px" height="48px">
<g id="surface30687727">
<rect x="0" y="0" width="48" height="48" style="fill:rgb(0%,30.19608%,25.098041%);fill-opacity:1;stroke:none;"/>
<path style=" stroke:none;fill-rule:evenodd;fill:rgb(100%,100%,100%);fill-opacity:1;" d="M 17.035156 20.800781 L 17.035156 26.304688 C 16.449219 26.414062 16.144531 26.457031 15.675781 26.457031 C 14.28125 26.457031 13.554688 25.832031 13.554688 24.636719 C 13.554688 23.484375 14.324219 22.734375 15.519531 22.734375 C 15.703125 22.734375 15.847656 22.75 16.015625 22.792969 L 16.015625 20.800781 Z M 16.015625 23.703125 C 15.882812 23.660156 15.773438 23.644531 15.632812 23.644531 C 15.054688 23.644531 14.71875 23.996094 14.71875 24.617188 C 14.71875 25.214844 15.039062 25.546875 15.625 25.546875 C 15.75 25.546875 15.851562 25.542969 16.015625 25.519531 Z M 16.015625 23.703125 "/>
<path style=" stroke:none;fill-rule:evenodd;fill:rgb(100%,100%,100%);fill-opacity:1;" d="M 18.777344 22.5625 L 18.777344 25.441406 C 18.777344 26.34375 18.710938 26.84375 18.511719 27.21875 C 18.324219 27.578125 18.082031 27.804688 17.578125 28.058594 L 16.515625 27.558594 C 17.019531 27.324219 17.265625 27.113281 17.421875 26.796875 C 17.582031 26.476562 17.636719 26.035156 17.636719 25.050781 L 17.636719 22.558594 L 18.777344 22.558594 Z M 18.777344 22.5625 "/>
<path style=" stroke:none;fill-rule:evenodd;fill:rgb(100%,100%,100%);fill-opacity:1;" d="M 17.636719 20.800781 L 18.777344 20.800781 L 18.777344 21.980469 L 17.636719 21.980469 Z M 17.636719 20.800781 "/>
<path style=" stroke:none;fill-rule:evenodd;fill:rgb(100%,100%,100%);fill-opacity:1;" d="M 19.53125 22.921875 C 20.027344 22.683594 20.5 22.578125 21.015625 22.578125 C 21.589844 22.578125 21.96875 22.734375 22.136719 23.042969 C 22.226562 23.214844 22.257812 23.441406 22.257812 23.921875 L 22.257812 26.277344 C 21.757812 26.351562 21.125 26.40625 20.660156 26.40625 C 19.722656 26.40625 19.300781 26.066406 19.300781 25.3125 C 19.300781 24.5 19.859375 24.125 21.234375 24.003906 L 21.234375 23.75 C 21.234375 23.539062 21.132812 23.464844 20.847656 23.464844 C 20.4375 23.464844 19.96875 23.585938 19.53125 23.816406 Z M 21.285156 24.765625 C 20.542969 24.839844 20.304688 24.960938 20.304688 25.261719 C 20.304688 25.484375 20.441406 25.589844 20.746094 25.589844 C 20.914062 25.589844 21.066406 25.578125 21.285156 25.539062 Z M 21.285156 24.765625 "/>
<path style=" stroke:none;fill-rule:evenodd;fill:rgb(100%,100%,100%);fill-opacity:1;" d="M 22.875 22.84375 C 23.539062 22.660156 24.082031 22.574219 24.636719 22.574219 C 25.207031 22.574219 25.625 22.714844 25.871094 22.980469 C 26.101562 23.230469 26.175781 23.507812 26.175781 24.097656 L 26.175781 26.40625 L 25.054688 26.40625 L 25.054688 24.144531 C 25.054688 23.691406 24.910156 23.523438 24.511719 23.523438 C 24.359375 23.523438 24.21875 23.539062 23.996094 23.609375 L 23.996094 26.40625 L 22.875 26.40625 Z M 22.875 22.84375 "/>
<path style=" stroke:none;fill-rule:evenodd;fill:rgb(100%,100%,100%);fill-opacity:1;" d="M 26.6875 26.894531 C 27.089844 27.109375 27.488281 27.207031 27.914062 27.207031 C 28.660156 27.207031 28.980469 27 28.980469 26.257812 L 28.980469 26.234375 C 28.757812 26.347656 28.535156 26.394531 28.238281 26.394531 C 27.238281 26.394531 26.613281 25.722656 26.613281 24.65625 C 26.613281 23.332031 27.542969 22.582031 29.210938 22.582031 C 29.703125 22.582031 30.15625 22.636719 30.703125 22.75 L 30.3125 23.589844 C 30.007812 23.527344 30.289062 23.578125 30.058594 23.558594 L 30.058594 23.679688 L 30.074219 24.171875 L 30.082031 24.808594 C 30.085938 24.964844 30.085938 25.125 30.09375 25.285156 L 30.09375 25.601562 C 30.09375 26.601562 30.011719 26.964844 29.769531 27.351562 C 29.410156 27.917969 28.796875 28.199219 27.921875 28.199219 C 27.472656 28.199219 27.089844 28.132812 26.6875 27.972656 Z M 28.957031 23.519531 L 28.839844 23.519531 C 28.617188 23.511719 28.355469 23.574219 28.179688 23.6875 C 27.90625 23.847656 27.761719 24.132812 27.761719 24.542969 C 27.761719 25.125 28.046875 25.457031 28.550781 25.457031 C 28.707031 25.457031 28.832031 25.425781 28.980469 25.382812 L 28.980469 24.980469 C 28.980469 24.84375 28.972656 24.691406 28.972656 24.535156 L 28.964844 23.996094 L 28.957031 23.609375 Z M 28.957031 23.519531 "/>
<path style=" stroke:none;fill-rule:evenodd;fill:rgb(100%,100%,100%);fill-opacity:1;" d="M 32.515625 22.5625 C 33.714844 22.5625 34.445312 23.285156 34.445312 24.453125 C 34.445312 25.652344 33.683594 26.40625 32.46875 26.40625 C 31.269531 26.40625 30.527344 25.683594 30.527344 24.519531 C 30.53125 23.3125 31.292969 22.5625 32.515625 22.5625 Z M 32.492188 25.480469 C 32.953125 25.480469 33.222656 25.113281 33.222656 24.480469 C 33.222656 23.855469 32.957031 23.484375 32.5 23.484375 C 32.023438 23.484375 31.75 23.847656 31.75 24.480469 C 31.753906 25.113281 32.023438 25.480469 32.492188 25.480469 Z M 32.492188 25.480469 "/>
</g>
</svg>
